# xmcd
#
# Track frame offsets:
#	150
#	15310
#	36512
#	75412
#
# Disc length: 1347 seconds
#
# Revision: 1
# Processed by: cddbd v1.4PL0 Copyright (c) Steve Scherf et al.
# Submitted via: EasyCDDAExtractor 5.1.0
#
DISCID=20054104
DTITLE=Jack Ingram - Live @ Gruene Hall
DYEAR=2002
DGENRE=Country
TTITLE0=Flutter (Live @ Gruene Hall)
TTITLE1=Biloxi (Live @ Gruene Hall)
TTITLE2=Beat up Ford (Live @ Gruene Hall)
TTITLE3=Barbie Doll (Live @ Gruene Hall)
EXTD=
EXTT0=
EXTT1=
EXTT2=
EXTT3=
PLAYORDER=
